<svg width="40" height="24" viewBox="0 0 40 24" fill="none" xmlns="http://www.w3.org/2000/svg">
<path fill-rule="evenodd" clip-rule="evenodd" d="M10.2306 0C10.2306 0.0330639 11.6706 2.56649 13.4305 5.5568L16.6304 10.9936L16.0219 12.0401C15.6249 12.723 15.4438 13.1221 15.5007 13.1889C15.5487 13.2453 15.8591 13.7563 16.1905 14.3245L16.8007 15.4048L14.2707 15.4517L14.7932 16.3441C15.5374 17.6149 15.5145 17.5652 15.3579 17.5652C15.2834 17.5652 14.946 17.0944 14.6082 16.5191L13.9938 15.4729L13.7782 15.8361C12.8299 17.4331 12.7894 17.5156 12.9062 17.6105C12.9708 17.6631 13.2328 18.0654 13.4886 18.5045L14.2721 19.7371L12.698 17.6477L11.5419 19.6311C11.7232 19.9184 11.9034 20.2052 12.1078 20.4771C12.2955 20.4771 12.4832 20.477 13.9849 20.3406C15.5207 20.1354 16.9053 19.9935 17.8617 19.9432C18.6255 19.9031 18.696 19.8826 18.7919 19.6719C18.849 19.5464 18.8872 19.4438 18.9594 19.4438H19.1472C19.1354 19.4247 18.9594 19.115 18.9594 19.115L20.3673 17.0955C20.3673 17.0955 20.6632 17.8527 21.0713 18.5485C21.9282 20.0096 21.6474 19.8641 23.7932 19.9585C25.1468 20.0182 27.1746 20.223 28.5229 20.4362C29.0078 20.5128 29.424 20.556 29.4479 20.532C29.472 20.5081 28.2897 18.4463 26.8208 15.9505C25.352 13.4547 24.0981 11.314 24.0346 11.1935C23.9093 10.9562 25.1789 8.82955 25.248 8.82955C25.2971 8.82955 25.5295 8.82955 25.5295 8.82955L25.3888 8.59343L26.562 6.5752H26.7966L26.6836 6.38734L27.876 4.3261H28.0637L27.9699 4.15484L29.0089 2.34829C21.0441 2.34829 26.6337 2.34829 26.8436 2.34829L26.9374 2.53615L26.2804 3.66333H25.0052C24.2285 3.66333 23.9339 3.66333 23.7462 3.66333C23.7462 3.72166 23.7462 3.85119 23.7462 3.85119L21.0243 3.94512L20.555 4.69657L22.8546 8.82955C20.9395 5.99305 19.1917 2.94972 17.4577 0C16.6941 0 10.2306 0 10.2306 0ZM14.6682 14.3245L14.0903 15.3108H15.2656C15.9498 15.3108 16.4278 15.2743 16.4096 15.2235C16.341 15.0318 15.3426 13.3447 15.2959 13.3416C15.2685 13.3398 14.986 13.7821 14.6682 14.3245ZM10.8784 20.756L11.188 20.6963C11.8284 20.5728 11.8362 20.5631 11.6045 20.179L11.3962 19.834L10.8784 20.756Z" fill="#FAFAFA"/>
<path fill-rule="evenodd" clip-rule="evenodd" d="M26.2804 3.66333H23.7462V3.85119L21.0125 3.95038L20.7889 4.32948L20.555 4.69657L22.8546 8.82955H25.5295L24.2155 6.5752H26.7966C26.7966 6.5752 26.3913 5.90284 26.061 5.34338L25.4606 4.3261H28.0637L26.9374 2.53615C26.9374 2.53615 26.3492 3.54455 26.2804 3.66333ZM16.8007 15.4048L14.2721 15.4517L15.3928 17.4712L12.8586 17.5652L14.2721 19.7371C14.2721 19.7371 13.7007 19.7778 13.0022 19.7778L11.6385 19.8195L12.1078 20.4771C13.0463 20.4771 15.2083 20.1847 16.1437 20.1013C16.9136 20.0327 16.8879 19.887 16.7068 19.4438H19.1472C19.1472 19.4051 18.7842 18.804 18.4487 18.2452C18.1132 17.6865 17.8388 17.2122 17.8388 17.1912C17.8388 17.1702 18.4053 17.1413 19.0977 17.1269L20.3673 17.0955L19.215 15.154L18.0734 13.207L15.5805 13.2443L16.8007 15.4048Z" fill="#CCCCCC"/>
<path d="M39.5493 24C34.4649 22.4234 27.4813 21.4503 19.7746 21.4503C12.068 21.4503 5.08443 22.4234 0 24C4.22816 21.595 11.5059 20.0074 19.7746 20.0074C28.0434 20.0074 35.3211 21.595 39.5493 24Z" fill="#FAFAFA"/>
</svg>
