<svg width="41" height="24" viewBox="0 0 41 24" fill="none" xmlns="http://www.w3.org/2000/svg">
<path fill-rule="evenodd" clip-rule="evenodd" d="M10.7799 0C10.7799 0.0330639 12.2199 2.56649 13.9798 5.5568L17.1797 10.9936L16.5712 12.0401C16.1742 12.723 15.9931 13.1221 16.05 13.1889C16.098 13.2453 16.4084 13.7563 16.7398 14.3245L17.35 15.4048L14.82 15.4517L15.3425 16.3441C16.0867 17.6149 16.0638 17.5652 15.9072 17.5652C15.8327 17.5652 15.4953 17.0944 15.1575 16.5191L14.5431 15.4729L14.3275 15.8361C13.3792 17.4331 13.3387 17.5156 13.4555 17.6105C13.5201 17.6631 13.7821 18.0654 14.0379 18.5045L14.8214 19.7371L13.2473 17.6477L12.0912 19.6311C12.2725 19.9184 12.4527 20.2052 12.6571 20.4771C12.8448 20.4771 13.0325 20.477 14.5342 20.3406C16.07 20.1354 17.4545 19.9935 18.411 19.9432C19.1748 19.9031 19.2453 19.8826 19.3412 19.6719C19.3983 19.5464 19.4365 19.4438 19.5087 19.4438H19.6965C19.6847 19.4247 19.5087 19.115 19.5087 19.115L20.9166 17.0955C20.9166 17.0955 21.2125 17.8527 21.6206 18.5485C22.4775 20.0096 22.1967 19.8641 24.3425 19.9585C25.6961 20.0182 27.7239 20.223 29.0722 20.4362C29.5571 20.5128 29.9733 20.556 29.9972 20.532C30.0213 20.5081 28.839 18.4463 27.3701 15.9505C25.9013 13.4547 24.6474 11.314 24.5839 11.1935C24.4586 10.9562 25.7282 8.82955 25.7973 8.82955C25.8464 8.82955 26.0788 8.82955 26.0788 8.82955L25.9381 8.59343L27.1113 6.5752H27.3459L27.2329 6.38734L28.4253 4.3261H28.613L28.5192 4.15484L29.5582 2.34829C21.5934 2.34829 27.183 2.34829 27.3929 2.34829L27.4867 2.53615L26.8297 3.66333H25.5545C24.7778 3.66333 24.4832 3.66333 24.2955 3.66333C24.2955 3.72166 24.2955 3.85119 24.2955 3.85119L21.5736 3.94512L21.1043 4.69657L23.4039 8.82955C21.4888 5.99305 19.741 2.94972 18.007 0C17.2434 0 10.7799 0 10.7799 0ZM15.2175 14.3245L14.6396 15.3108H15.8149C16.4991 15.3108 16.9771 15.2743 16.9589 15.2235C16.8903 15.0318 15.8919 13.3447 15.8452 13.3416C15.8178 13.3398 15.5353 13.7821 15.2175 14.3245ZM11.4277 20.756L11.7373 20.6963C12.3777 20.5728 12.3855 20.5631 12.1538 20.179L11.9455 19.834L11.4277 20.756Z" fill="#C84885"/>
<path fill-rule="evenodd" clip-rule="evenodd" d="M26.8297 3.66333H24.2955V3.85119L21.5618 3.95038L21.3382 4.32948L21.1043 4.69657L23.4039 8.82955H26.0788L24.7648 6.5752H27.3459C27.3459 6.5752 26.9406 5.90284 26.6103 5.34338L26.0099 4.3261H28.613L27.4867 2.53615C27.4867 2.53615 26.8985 3.54455 26.8297 3.66333ZM17.35 15.4048L14.8214 15.4517L15.9421 17.4712L13.4079 17.5652L14.8214 19.7371C14.8214 19.7371 14.25 19.7778 13.5515 19.7778L12.1878 19.8195L12.6571 20.4771C13.5956 20.4771 15.7576 20.1847 16.693 20.1013C17.4629 20.0327 17.4372 19.887 17.2561 19.4438H19.6965C19.6965 19.4051 19.3335 18.804 18.998 18.2452C18.6625 17.6865 18.3881 17.2122 18.3881 17.1912C18.3881 17.1702 18.9546 17.1413 19.647 17.1269L20.9166 17.0955L19.7643 15.154L18.6227 13.207L16.1298 13.2443L17.35 15.4048Z" fill="#652778"/>
<path d="M40.0986 24C35.0142 22.4234 28.0306 21.4503 20.3239 21.4503C12.6173 21.4503 5.63373 22.4234 0.549297 24C4.77746 21.595 12.0552 20.0074 20.3239 20.0074C28.5927 20.0074 35.8704 21.595 40.0986 24Z" fill="#9C9895"/>
</svg>
