<svg xmlns:xlink="http://www.w3.org/1999/xlink" preserveAspectRatio="xMidYMid meet" data-bbox="114.913 162.16 562.447 287.8" viewBox="114.913 162.16 562.447 287.8" xmlns="http://www.w3.org/2000/svg" data-type="color" role="presentation" aria-hidden="true" aria-label="" width="562.447"  height="287.8" >
    <g>
        <path d="M183.85 238.82h7.9c2.74 0 5.18-.46 7.35-1.25 1.33.81 2.87 1.25 4.46 1.25h13.61c.51 0 1.01-.06 1.5-.14.49.09.98.14 1.48.14h8.36c2.13 21.91 16.41 34.8 39.13 34.8 20.66 0 35.05-11.38 43.75-27.34.31 1.04.81 2.03 1.51 2.9a8.6 8.6 0 0 0 6.72 3.23h29.02l-1.94 9.06c-.54 2.54.09 5.19 1.72 7.21s4.09 3.19 6.69 3.19h23.53c4.06 0 7.56-2.84 8.41-6.8l2.71-12.66h1.7a8.59 8.59 0 0 0 8.23-6.11l2.27-7.5c.15 0 .29.03.44.03h5.37c1.36 0 2.67-.32 3.85-.91 1.16.58 2.47.91 3.85.91h5.18c.32 0 .63-.02.94-.05.31.03.63.05.95.05h13.07c1.31 0 2.55-.3 3.68-.84 1.84 22.42 16.2 35.64 39.21 35.64s38.38-14.23 46.61-33.2c3.47 21.19 17.85 33.11 40.64 33.11 27.82 0 47.25-18.72 47.25-45.52 0-9.5-2.82-17.56-7.79-23.49h3.16a8.6 8.6 0 0 0 8.6-8.6c0-16.2-10.37-33.5-39.46-33.5-18.78 0-33.73 9.22-43.23 26.66-.91 1.66-1.71 3.34-2.46 5.02-3.17-19.93-17.36-31.95-38.63-31.95-33.34 0-48.84 29.87-52.95 56.29-.38-.16-.76-.3-1.15-.4l.97-4.6a8.61 8.61 0 0 0-1.73-7.2 8.6 8.6 0 0 0-6.68-3.18h-5.17c-1.39 0-2.71.36-3.89.96-1.17-.59-2.47-.96-3.86-.96h-6.76c-3.22 0-6.17 1.8-7.65 4.66l-4.63 8.99c-.77-.24-1.58-.38-2.4-.39l9.03-42.01c.55-2.54-.09-5.19-1.72-7.21s-4.09-3.2-6.69-3.2h-30.62c-2.56 0-4.98 1.14-6.61 3.1l-39.75 47.79c.46-3.95.69-7.92.69-11.86 0-25.15-15.06-40.78-39.3-40.78-27.26 0-42.59 19.96-49.52 41.68-1.1-.5-2.31-.77-3.54-.77h-5.17c-.55 0-1.09.06-1.62.16-.53-.1-1.06-.16-1.6-.16H207.5c-1.89 0-3.65.64-5.09 1.7-2.3-1.09-4.95-1.7-7.88-1.7h-6.74c-4.06 0-7.57 2.84-8.41 6.82l-3.93 18.56a8.61 8.61 0 0 0 1.73 7.2 8.59 8.59 0 0 0 6.68 3.19Zm385.6-11.04h.17c.05.32.1.76.1 1.33 0 5.09-2.01 9.29-3.51 9.81-.13-.45-.26-1.2-.26-2.28 0-4.28 1.41-8.87 3.5-8.87Zm-86.7 1.56c.01-.11.03-.23.04-.34 1.34-15.79 4.43-25.03 6.82-29.24-.05 1.47-.2 3.4-.5 5.92 0 .07-.01.13-.02.2-1.64 16.6-4.6 25.48-6.84 29.68.04-1.56.18-3.59.51-6.22Zm-210.87 0c.01-.11.03-.23.04-.34 1.34-15.79 4.43-25.03 6.82-29.24-.05 1.47-.2 3.4-.5 5.92 0 .07-.01.13-.02.2-1.64 16.6-4.61 25.48-6.84 29.69.04-1.56.18-3.59.51-6.22Z" fill="#FFFFFF" data-color="1"></path>
        <path d="M623.8 272.94c-23.89 0-41.68 10.74-53.09 26.41l3.07-14.01a8.6 8.6 0 0 0-8.4-10.44h-82.09c-4.04 0-7.54 2.82-8.4 6.76l-4.12 18.85c-3.95-13.71-16.2-25.61-41.38-25.61h-45.31c-4.06 0-7.57 2.84-8.41 6.82l-18.26 86.12-8.86-85.23a8.597 8.597 0 0 0-8.55-7.71h-38.39c-3.22 0-6.17 1.8-7.65 4.66l-44.05 85.55 16.92-79.82a8.61 8.61 0 0 0-1.73-7.2 8.59 8.59 0 0 0-6.68-3.19h-42.18c-3.43 0-6.53 2.03-7.89 5.18-2.29 5.29-4.65 10.66-6.98 16-1.46 3.34-2.91 6.65-4.34 9.92.1-8.16.13-16.02.08-22.55-.04-4.72-3.88-8.53-8.6-8.53h-42.66c-4.06 0-7.57 2.84-8.41 6.82l-22.34 105.4a8.61 8.61 0 0 0 1.73 7.2 8.62 8.62 0 0 0 6.68 3.19h26.36a8.59 8.59 0 0 0 8.23-6.11c.4 1.33 1.12 2.55 2.12 3.56a8.6 8.6 0 0 0 6.12 2.55h23.8c3.42 0 6.51-2.02 7.88-5.15.4-.92.8-1.84 1.2-2.75.14 1.71.79 3.36 1.89 4.72a8.6 8.6 0 0 0 6.68 3.18h28.29c2.14 0 4.1-.8 5.63-2.12a8.58 8.58 0 0 0 5.63 2.12h30.5a8.6 8.6 0 0 0 7.78-4.94l7.95-16.92h18.19l1.21 14c.38 4.45 4.11 7.86 8.57 7.86h28.26c-10.15 1.23-17.13 8.06-18.94 18.81-.42 2.5.28 5.05 1.92 6.98.26.31.55.6.84.87-3.44 3.92-5.54 8.26-6.62 13.44l-.28 1.35a8.596 8.596 0 0 0 8.42 10.32h25.3c2.52 0 4.83-1.11 6.43-2.92 3.27 2.3 7.42 3.58 12.27 3.58 4.54 0 8.43-1.1 11.73-2.99a8.57 8.57 0 0 0 5.88 2.33h25.3c2.6 0 4.98-1.18 6.59-3.1 3.39 2.4 7.71 3.72 12.82 3.72 13.42 0 23.15-9.46 23.15-22.5 0-2.2-.3-4.26-.87-6.15a8.56 8.56 0 0 0 2.37-5.93c0-8.41-5.53-16.89-17.8-17.88a8.56 8.56 0 0 0 5.44-2.8q.195-.225.36-.45c.03.04.06.09.1.13a8.59 8.59 0 0 0 6.67 3.18h85.23a8.6 8.6 0 0 0 8.1-5.7l6.72-18.8c7.98 16.75 24.66 26.47 47.38 26.47 47.7 0 69.05-36.81 69.05-73.3 0-32.33-21.02-53.22-53.55-53.22ZM415.61 312.6h6.12c2.25 0 3.28.36 3.61.52.05.19.14.6.14 1.33 0 1.92 0 4.82-8.43 4.82h-2.84l1.4-6.66Zm-46.8 90.84c-3.33-3.64-8.47-6.16-15.65-6.16-.12 0-.24.01-.36.01 1.29-.29 2.49-.87 3.53-1.7a8.6 8.6 0 0 0 5.4 1.91h19.39c-4.89.7-9 2.84-12.3 5.94Zm61.46-.17c-3.33-3.55-8.44-5.99-15.5-5.99-6.34 0-11.64 2.01-15.55 5.65-2.84-2.91-6.66-4.8-11.18-5.43h2.69c4.07 0 7.58-2.85 8.42-6.84l7.07-33.7h6.82c.7 0 1.23.04 1.63.08-.01.91-.16 2.51-.74 5.21-2.92 13.95-3.79 22-3.01 27.79a8.594 8.594 0 0 0 8.52 7.45h23.63c-5.13.56-9.41 2.66-12.81 5.76Zm29.61-40c1.45-9.86-.22-16.89-3.01-21.85 9.81-6.75 15.38-17.4 15.38-30.23a8.6 8.6 0 0 0 6.27 2.73h28.14zm94.02-4.78h-32.16l39.92-42.55c-3.97 10.02-5.99 20.94-5.99 31.84 0 3.9.31 7.62.9 11.15-.85-.28-1.75-.44-2.67-.44m57.62 2.42c-2.92 0-8.35 0-8.35-12.6 0-15.37 7.3-36.8 19.19-36.8 2.99 0 8 0 8 12.85 0 14.74-5.99 36.55-18.84 36.55" fill="#FFFFFF" data-color="1"></path>
        <path d="M187.79 211.66h6.74c5.17 0 8.16 3.04 8.16 7.87 0 5.35-3.2 10.69-10.94 10.69h-7.9l3.93-18.56Zm2.01 14.84h2.24c3.35 0 5.23-3.39 5.23-7.13 0-2.69-1.14-3.98-3.38-3.98h-1.73z" fill="#0C64D1" data-color="2"></path>
        <path d="M218.2 222.62h-8.04l-.8 3.76h9.19l-1.37 3.84h-13.61l3.94-18.56h13.37l-.81 3.84h-8.37l-.69 3.28h8.04l-.83 3.84Z" fill="#0C64D1" data-color="2"></path>
        <path d="M224.09 211.66h5.17l-3.11 14.72h8.44l-1.37 3.84h-13.07z" fill="#0C64D1" data-color="2"></path>
        <path d="M313.03 202.93c0 23.47-10.16 62.08-45.38 62.08-21.32 0-30.82-13.17-30.82-32.06 0-23.95 11.54-62.2 45.5-62.2 20.61 0 30.7 13.09 30.7 32.18m-49.68 25.34c-1.55 12.38-.17 18.97 5.89 18.97 11.82 0 16.09-25.84 17.54-40.53 1.5-12.28.33-18.24-5.98-18.24-10.63 0-15.81 20.43-17.45 39.79Z" fill="#00C52E" data-color="3"></path>
        <path d="m355.11 263.27 4.16-19.46h-39.66l4.32-19.17 43.36-52.14h30.62l-11.27 52.42h10.53l-5.71 18.89h-8.66l-4.16 19.46zm10.85-50.9c1.64-7.42 3.63-15.13 5.33-21.01-4.89 8.19-17.61 23.7-25.04 33.57h16.86l2.85-12.55Z" fill="#00C52E" data-color="3"></path>
        <path d="m409.59 226.37-1.81 3.85h-5.37l9.56-18.56h6.76l1.93 18.56h-5.18l-.33-3.85h-5.55Zm5.49-3.84c-.24-2.82-.41-5.48-.46-7.19h-.07c-.82 2.04-1.99 4.52-3.28 7.19h3.82Z" fill="#0C64D1" data-color="2"></path>
        <path d="M426.48 211.66h5.17l-3.11 14.72h8.44l-1.37 3.84h-13.07l3.93-18.56Z" fill="#0C64D1" data-color="2"></path>
        <path d="M523.9 202.93c0 23.47-10.16 62.08-45.38 62.08-21.32 0-30.82-13.17-30.82-32.06 0-23.95 11.54-62.2 45.51-62.2 20.61 0 30.7 13.09 30.7 32.18Zm-49.68 25.34c-1.55 12.38-.17 18.97 5.89 18.97 11.82 0 16.09-25.84 17.54-40.53 1.5-12.28.33-18.24-5.98-18.24-10.63 0-15.81 20.43-17.45 39.79Z" fill="#00C52E" data-color="3"></path>
        <path d="M585.08 195.92c-.17-4.23-1.8-7.98-8.03-7.98-7.55 0-12.6 7.33-15.53 20.8 4.31-4.09 10.34-6.51 18.63-6.51 14.62 0 24.26 9.69 24.26 25.78 0 20.58-14.5 36.92-38.65 36.92s-32.86-13.9-32.86-35.1c0-19.27 8.96-58.81 44.62-58.81 24.8 0 30.86 13.81 30.86 24.9zm-6.76 33.19c0-4.77-1.72-9.94-8.87-9.94-8.36 0-12.1 8.8-12.1 17.47 0 6.27 2.72 10.93 8.56 10.93 8.41 0 12.41-9.95 12.41-18.47Z" fill="#00C52E" data-color="3"></path>
        <path d="M215.03 354.51c3.46-16.47 8.42-38.39 11.43-50.91h-.67c-9.05 22.6-22.17 54.5-35.67 85.3h-23.8c.33-27.58.08-61.83 1.09-85.28h-.87c-1.79 12.4-5.75 33.67-9.58 51.72l-7.11 33.56h-26.36l22.34-105.4h42.66c.16 20.03-.47 51.95-1.33 67.43h.53c6.3-17.25 17.99-43.13 28.53-67.43h42.18l-22.34 105.4h-28.29l7.25-34.39Z" fill="#0C64D1" data-color="2"></path>
        <path d="m288.09 367.04-10.27 21.86h-30.5l54.28-105.4h38.39l10.96 105.4h-29.43l-1.89-21.86zm31.2-21.82c-1.39-16.02-2.34-31.1-2.64-40.84h-.42c-4.68 11.57-11.33 25.67-18.64 40.84h21.69Z" fill="#0C64D1" data-color="2"></path>
        <path d="m399.24 348.37-8.5 40.54h-29.01l22.34-105.4h45.31c22.51 0 34.26 11.17 34.26 27.69 0 14.34-8.57 24.04-21.7 27.77 5.65 2.47 12.48 8.88 8.91 26.03-2.33 11-4.02 19.35-3.52 23.92h-27.88c-.61-4.54.21-11.98 2.91-24.87 2.13-9.96 1.14-15.66-9.31-15.66h-13.8Zm4.37-20.5h13.44c10.04 0 17.03-3.98 17.03-13.42 0-6.32-3.33-10.45-12.34-10.45h-13.1z" fill="#0C64D1" data-color="2"></path>
        <path d="m464.66 370.73 62-65.41h-48.14l4.77-21.82h82.09l-4.55 20.75-58.95 62.83h52.03l-7.8 21.82h-85.23l3.79-18.17Z" fill="#0C64D1" data-color="2"></path>
        <path d="M668.75 326.16c0 31.57-17.35 64.7-60.44 64.7-30.83 0-44.03-19.69-44.03-43.09 0-31.64 19.34-66.23 59.52-66.23 31.09 0 44.95 20.16 44.95 44.62m-74.18 22.15c0 12.61 5.06 21.2 16.95 21.2 20.22 0 27.44-27.85 27.44-45.15 0-11.74-4-21.45-16.6-21.45-18.97 0-27.79 27.27-27.79 45.41Z" fill="#0C64D1" data-color="2"></path>
        <path d="m335.12 440.68.28-1.35c1.29-6.19 4.37-10.84 12.97-16.19 5.19-3.21 6.92-4.57 6.92-7.73 0-1.56-.67-2.92-2.73-2.92-2.53 0-3.64 1.75-4.37 5.25h-8.87c.92-5.45 3.92-11.86 13.85-11.86 8.48 0 11.7 4.8 11.7 9.74 0 5.54-2.45 8.15-8.71 11.77-3.52 2.08-6.75 3.97-8.05 6.09h14.91l-2.59 7.2h-25.3Z" fill="#0C64D1" data-color="2"></path>
        <path d="M396.21 417.96c0 8.84-3.83 23.37-17.09 23.37-8.03 0-11.6-4.96-11.6-12.07 0-9.02 4.35-23.42 17.13-23.42 7.76 0 11.56 4.93 11.56 12.12m-18.71 9.54c-.58 4.66-.07 7.14 2.22 7.14 4.45 0 6.06-9.73 6.6-15.26.56-4.62.12-6.87-2.25-6.87-4 0-5.95 7.69-6.57 14.98Z" fill="#0C64D1" data-color="2"></path>
        <path d="m396.73 440.68.28-1.35c1.29-6.19 4.37-10.84 12.97-16.19 5.19-3.21 6.92-4.57 6.92-7.73 0-1.56-.67-2.92-2.73-2.92-2.53 0-3.64 1.75-4.37 5.25h-8.87c.92-5.45 3.92-11.86 13.85-11.86 8.48 0 11.7 4.8 11.7 9.74 0 5.54-2.45 8.15-8.71 11.77-3.52 2.08-6.75 3.97-8.05 6.09h14.91l-2.59 7.2h-25.3Z" fill="#0C64D1" data-color="2"></path>
        <path d="M448.72 415.33c-.06-1.59-.68-3-3.02-3-2.84 0-4.74 2.76-5.85 7.83 1.62-1.54 3.89-2.45 7.01-2.45 5.5 0 9.13 3.65 9.13 9.7 0 7.75-5.46 13.9-14.55 13.9s-12.37-5.23-12.37-13.21c0-7.26 3.37-22.14 16.8-22.14 9.34 0 11.62 5.2 11.62 9.38h-8.77Zm-2.55 12.49c0-1.79-.65-3.74-3.34-3.74-3.15 0-4.55 3.31-4.55 6.58 0 2.36 1.02 4.12 3.22 4.12 3.16 0 4.67-3.75 4.67-6.95Z" fill="#0C64D1" data-color="2"></path>
    </g>
</svg>