<svg xmlns:xlink="http://www.w3.org/1999/xlink" preserveAspectRatio="xMidYMid meet" data-bbox="106.385 232.41 579.168 147.3" viewBox="106.385 232.41 579.168 147.3" xmlns="http://www.w3.org/2000/svg" data-type="color" role="presentation" aria-hidden="true" aria-label="" width="1197"  height="288" >
    <g>
        <path d="M684.43 348.86a5.99 5.99 0 0 0-4.83-2.45l1.1-3.08a6 6 0 0 0-.93-5.72c.24-.47.43-.97.54-1.5l1.43-6.61c.18-.84.18-1.71 0-2.53a6 6 0 0 0 1.77-3.13l1.4-6.61c.37-1.76-.07-3.6-1.2-5a5.98 5.98 0 0 0-4.64-2.21h-23c-.73 0-1.43.13-2.08.37-.65-.24-1.35-.37-2.07-.37h-26.33c-1.91 0-3.63.9-4.74 2.34-2.48-1.45-5.66-2.34-9.61-2.34h-13.72c-.98 0-1.91.24-2.74.67-.12-.78-.23-1.82-.34-2.91-.43-4.29-.92-9.16-3.43-12.41-2.42-3.14-6.65-4.49-9.44-5.39l-.23-.07c-6.09-1.95-12.93-3.94-18.78-5.46-3.79-.98-7.06-1.62-10.18-1.95l-.39-.91c.57-.98.97-2.07 1.16-3.24.82-5.09-2.62-10.32-4.13-12.33-1.72-2.28-5.28-6.18-9.84-6.73-.33-.04-.68-.06-1.06-.07-.16-.22-.34-.44-.53-.65-13.53-14.91-32.27-19.02-50.4-22.99-4.35-.95-8.47-1.86-12.51-2.9-.3-.08-.6-.13-.9-.16-.72-.07-1.38-.11-2.03-.11-6.17 0-10.35 3.48-11.47 9.56-.26 1.4-.27 2.75-.28 3.83 0 .56-.01 1.13-.05 1.48-.26 2.24-.58 4.54-.9 6.77-.83 5.88-1.68 11.97-1.63 18.26v.24l.37 7.74c-3.97.42-7.26 2.13-9.84 4.67-2.39-2.79-6.2-4.75-11.59-4.75-7.28 0-12.56 3.45-15.01 9.6l-.38-3.64a5.975 5.975 0 0 0-5.95-5.36h-8.83a5.99 5.99 0 0 0-5.32 3.24l-1.57 3.05c-.53-.88-1.16-1.7-1.89-2.44-1.95-1.96-5.55-4.31-11.6-4.31-3.83 0-7.11.96-9.83 2.58a5.97 5.97 0 0 0-4.56-2.12h-6.79c-1.34 0-2.59.44-3.6 1.2a6 6 0 0 0-3.6-1.2h-6.74a5.99 5.99 0 0 0-5.85 4.73l-3.11 14.49h-.2l2.54-12c.37-1.76-.07-3.6-1.21-5a5.96 5.96 0 0 0-4.64-2.21h-6.76c-2.39 0-4.5 1.42-5.45 3.53-2.82-2.53-6.68-3.98-11.26-3.98-3.31 0-6.22.74-8.72 2a5.95 5.95 0 0 0-4.01-1.55h-19.99c-2.81 0-5.25 1.96-5.84 4.71l-1.09 5.02c-.38 1.77.05 3.61 1.19 5.02.98 1.22 2.4 2 3.94 2.18l-2.54 12.05c-.12.55-.14 1.11-.1 1.65a5.9 5.9 0 0 0-1.98 3.31l-.1.48a5.97 5.97 0 0 0-5.92-5.2h-11.63a5.99 5.99 0 0 0-5.32 3.24l-4.7 9.13c-2.4-7.96-9.3-12.96-18.67-12.96-7.17 0-12.82 2.84-16.83 7.13-2.94-4.06-8.06-6.54-14.39-6.54h-12.64c-.58 0-1.15.09-1.69.25-.54-.16-1.11-.25-1.7-.25h-9.5c-2.03 0-3.92 1.03-5.02 2.74-.09.12-.24.33-.45.6a5.98 5.98 0 0 0-5.37-3.34h-9.33c-.67 0-1.31.12-1.93.33a5.8 5.8 0 0 0-1.95-.33h-23a5.99 5.99 0 0 0-5.85 4.74l-6.77 31.92c-.26 1.23-.12 2.49.37 3.61-.04.11-.09.23-.12.34l-6.45 21.06c-.56 1.81-.22 3.78.91 5.31s2.91 2.42 4.8 2.42l560.39.27c2.6 0 4.9-1.68 5.7-4.16l6.82-21.33c.58-1.82.26-3.8-.87-5.35ZM354.2 329.27c-.14 2.43-.8 4.52-1.45 5.73.11-2.27.76-4.38 1.45-5.73m-22.51 8.23c.29 3.39 1.31 6.4 2.93 8.91h-4.81zm220.33 2.86c.5 2.24 1.34 4.27 2.49 6.05h-14.53l.81-3.9h1.03c3.87 0 7.31-.76 10.19-2.15Zm20.63-5.36c.11-2.27.76-4.38 1.45-5.72-.14 2.43-.8 4.52-1.45 5.72M422.4 299.68s-.01.02-.02.02v-.05s.01.02.02.02Zm-194.51 29.59c-.14 2.43-.8 4.52-1.45 5.73.11-2.27.76-4.38 1.45-5.73m-32.27 13.24c3.87 0 7.31-.76 10.19-2.15.5 2.24 1.34 4.27 2.49 6.05h-14.53l.81-3.9h1.03Z" fill="#FFFFFF" data-color="1"></path>
        <path d="m544.81 280.06 3.51 8.14c4.41.14 8.49.93 12.73 2.03 5.92 1.54 12.63 3.5 18.45 5.37 2.06.66 5.43 1.69 6.76 3.41 2.07 2.7 2.02 9.62 2.69 13.18.06.32 0 .46-.33.32l-3.29-2.05c-.79-2.12-.36-8.48-2.37-9.65-9.05-3.07-18.11-6.23-27.48-8.25-1.24-.27-3.45-.86-4.61-.87s-3.46 1.02-4.39.5l-7.14-15.24c-.04-.4-.04-.41.36-.36 1.44.19 2.64.45 4.1-.02.68-.8-3.83-7-5.02-7.48s-2.97 0-4.26-.2c-2.15-.33-5.42-5.51-7.21-7.18-12.05-11.26-31.8-14.45-47.35-17.91-1.91-.43-7.88-2.46-9.38-1.78s-1.09 3.89-1.25 5.2c-.48 3.98-1.24 7.95-1.7 11.93-.87 7.59-1.28 14.98-1.03 22.64l-2.82-.96-.41-8.57c-.06-8.19 1.55-16.21 2.49-24.3.18-1.52-.01-3.35.28-4.93.73-3.99 3.19-4.97 7.02-4.58 20.84 5.4 44.69 7.26 59.98 24.13.54.59 1.39 2.23 1.99 2.48.83.35 2.32.04 3.32.16 3.91.47 9.4 8.32 8.78 12.18-.19 1.2-1.18 2.47-2.42 2.66" fill="#00C52E" data-color="2"></path>
        <path d="M524.95 277.58c-.46 1.88-.59 3.9-.51 5.83.03.6.19 2.77.31 3.16.1.35.69.7.69.79s-.58.44-.69.79c-.2.67.03 1.59-.05 2.3l-7.34-.97c-.14-.89.2-1.67.16-2.62-.14-3.51-4.61-5.78-1.13-9.29h8.56Zm-3.72 3.71c-.61-.18-2.25-.54-2.63-.02l.25 4.74 2.37.23v-4.96Z" fill="#00C52E" data-color="2"></path>
        <path d="M544.31 292.2c-1.62.07-2.66-1.12-3.42-2.4-2.13-3.58-3.26-8.49-5.26-12.21.73.07 1.74-.3 2.21.39.66 1.61 7.13 13.61 6.48 14.22Z" fill="#00C52E" data-color="2"></path>
        <path d="m530.66 279.81 3.98 11.52c-.02.34-3.52-.35-3.98-.37z" fill="#00C52E" data-color="2"></path>
        <path d="m679.6 352.39-6.82 21.33-560.39-.27 6.45-21.06h560.75Z" fill="#00C52E" data-color="2"></path>
        <path d="M287.62 291.8h-6.65l1.09-5.02h19.99l-1.09 5.02h-6.6l-4.05 19.22h-6.74z" fill="#00C52E" data-color="2"></path>
        <path d="M325.12 296.59c0 7.26-3.99 14.88-13.9 14.88-7.09 0-10.12-4.53-10.12-9.91 0-7.27 4.45-15.23 13.69-15.23 7.15 0 10.33 4.64 10.33 10.26m-17.06 5.09c0 2.9 1.16 4.87 3.9 4.87 4.65 0 6.31-6.4 6.31-10.38 0-2.7-.92-4.93-3.82-4.93-4.36 0-6.39 6.27-6.39 10.44" fill="#00C52E" data-color="2"></path>
        <path d="M331.49 286.78h6.76L334.19 306h11.02l-1.78 5.02h-17.07l5.14-24.23Z" fill="#00C52E" data-color="2"></path>
        <path d="m357.45 286.78-3.26 15.28c-.61 2.86.37 4.48 2.94 4.48 2.72 0 3.6-1.48 4.23-4.19l3.29-15.57h6.79l-3.27 15.3c-1.37 6.16-4.1 9.34-11.65 9.34-6.67 0-10.42-2.99-8.91-10.16l3.11-14.49h6.74Z" fill="#00C52E" data-color="2"></path>
        <path d="M393.85 302.94c-1.7 5.85-5.92 8.53-11.88 8.53-6.46 0-9.68-3.85-9.68-9.93 0-6.42 3.66-15.2 13.53-15.2 6.25 0 9.58 3.37 9.55 8.49h-6.84c0-1.79-.54-3.59-3.25-3.59-4.04 0-5.91 6.51-5.91 10.64 0 2.64.79 4.66 3.29 4.66s3.5-1.59 4.31-3.59h6.88Z" fill="#00C52E" data-color="2"></path>
        <path d="m403.09 305.99-2.36 5.03h-7.01l12.48-24.23h8.83l2.52 24.23h-6.77l-.43-5.03h-7.25Zm7.18-5.02c-.32-3.68-.54-7.15-.61-9.39h-.1c-1.08 2.66-2.61 5.9-4.28 9.39z" fill="#00C52E" data-color="2"></path>
        <path d="m422.98 311.98.21-1c.96-4.59 3.24-8.03 9.61-12 3.84-2.38 5.13-3.39 5.13-5.73 0-1.16-.5-2.17-2.02-2.17-1.88 0-2.7 1.3-3.24 3.9h-6.57c.68-4.04 2.91-8.79 10.27-8.79 6.29 0 8.68 3.56 8.68 7.22 0 4.11-1.82 6.04-6.46 8.73-2.61 1.54-5 2.94-5.97 4.52h11.06l-1.92 5.34H423Z" fill="#0C64D1" data-color="3"></path>
        <path d="M468.27 295.14c0 6.55-2.84 17.33-12.67 17.33-5.95 0-8.6-3.68-8.6-8.95 0-6.69 3.22-17.36 12.7-17.36 5.75 0 8.57 3.65 8.57 8.98m-13.86 7.07c-.43 3.46-.05 5.3 1.64 5.3 3.3 0 4.49-7.22 4.9-11.31.42-3.43.09-5.09-1.67-5.09-2.97 0-4.41 5.7-4.87 11.11Z" fill="#0C64D1" data-color="3"></path>
        <path d="m468.66 311.98.21-1c.96-4.59 3.24-8.03 9.61-12 3.84-2.38 5.13-3.39 5.13-5.73 0-1.16-.5-2.17-2.02-2.17-1.88 0-2.7 1.3-3.24 3.9h-6.57c.68-4.04 2.91-8.79 10.27-8.79 6.29 0 8.68 3.56 8.68 7.22 0 4.11-1.82 6.04-6.46 8.73-2.61 1.54-5 2.94-5.97 4.52h11.06l-1.92 5.34h-18.76Z" fill="#0C64D1" data-color="3"></path>
        <path d="M507.22 293.18c-.05-1.18-.5-2.23-2.24-2.23-2.11 0-3.52 2.05-4.34 5.81 1.2-1.14 2.89-1.82 5.2-1.82 4.08 0 6.77 2.71 6.77 7.2 0 5.74-4.05 10.31-10.79 10.31s-9.17-3.88-9.17-9.8c0-5.38 2.5-16.42 12.46-16.42 6.92 0 8.62 3.86 8.62 6.95h-6.5Zm-1.89 9.27c0-1.33-.48-2.77-2.48-2.77-2.33 0-3.38 2.46-3.38 4.88 0 1.75.76 3.05 2.39 3.05 2.35 0 3.46-2.78 3.46-5.16Z" fill="#0C64D1" data-color="3"></path>
        <path d="M143.91 334.85h-13.82l-1.38 6.46h15.8l-2.37 6.61h-23.42l6.77-31.92h23l-1.4 6.61H132.7l-1.2 5.64h13.82l-1.43 6.61Z" fill="#00C52E" data-color="2"></path>
        <path d="M166.51 347.92c-.16-.76-3.46-9.31-3.64-10.1h-.08c-.59 1.01-7.07 9.22-7.62 10.1h-9.73l13.28-16.31-6.33-15.61h9.33c.15.8 3.32 9.13 3.42 9.66h.1c.57-.86 6.86-8.91 7.32-9.66h9.5l-12.9 15.61 6.71 16.31h-9.35Z" fill="#00C52E" data-color="2"></path>
        <path d="M185.43 316h12.64c7.3 0 11.11 3.98 11.11 9.25 0 7.24-5.42 11.29-13.57 11.29h-5.89l-2.38 11.39h-8.69l6.77-31.92Zm5.66 14.28h3.55c3.59 0 5.46-1.47 5.46-4.59 0-2.24-1.18-3.45-4.03-3.45h-3.24z" fill="#00C52E" data-color="2"></path>
        <path d="M242.91 328.92c0 9.56-5.26 19.6-18.31 19.6-9.34 0-13.34-5.96-13.34-13.05 0-9.58 5.86-20.06 18.03-20.06 9.42 0 13.61 6.11 13.61 13.52Zm-22.46 6.7c0 3.82 1.53 6.42 5.13 6.42 6.13 0 8.31-8.43 8.31-13.68 0-3.56-1.21-6.5-5.03-6.5-5.75 0-8.42 8.26-8.42 13.75Z" fill="#00C52E" data-color="2"></path>
        <path d="m253.89 341.3-3.11 6.62h-9.24L257.98 316h11.63l3.32 31.92h-8.91l-.57-6.62h-9.55Zm9.45-6.61c-.42-4.85-.71-9.42-.8-12.37h-.13c-1.42 3.5-3.43 7.78-5.64 12.37z" fill="#0C64D1" data-color="3"></path>
        <path d="m290.36 316-4.3 20.12c-.81 3.77.49 5.9 3.88 5.9 3.59 0 4.74-1.95 5.57-5.51l4.33-20.51h8.95l-4.3 20.16c-1.8 8.11-5.4 12.31-15.35 12.31-8.79 0-13.73-3.94-11.74-13.38l4.09-19.09h8.88Z" fill="#0C64D1" data-color="3"></path>
        <path d="M319.84 322.61h-8.75l1.43-6.61h26.33l-1.43 6.61h-8.69l-5.34 25.32h-8.88l5.34-25.32Z" fill="#0C64D1" data-color="3"></path>
        <path d="M369.22 328.92c0 9.56-5.26 19.6-18.31 19.6-9.34 0-13.34-5.96-13.34-13.05 0-9.58 5.86-20.06 18.03-20.06 9.42 0 13.61 6.11 13.61 13.52Zm-22.46 6.7c0 3.82 1.53 6.42 5.13 6.42 6.13 0 8.31-8.43 8.31-13.68 0-3.56-1.21-6.5-5.03-6.5-5.75 0-8.42 8.26-8.42 13.75Z" fill="#0C64D1" data-color="3"></path>
        <path d="M380.37 322.61h-8.75l1.43-6.61h26.33l-1.43 6.61h-8.69l-5.34 25.32h-8.88l5.34-25.32Z" fill="#0C64D1" data-color="3"></path>
        <path d="m408.12 335.64-2.57 12.28h-8.79l6.77-31.92h13.72c6.82 0 10.38 3.38 10.38 8.39 0 4.34-2.6 7.28-6.57 8.41 1.71.75 3.78 2.69 2.7 7.88-.71 3.33-1.22 5.86-1.07 7.24h-8.44c-.19-1.37.06-3.63.88-7.53.65-3.02.35-4.74-2.82-4.74h-4.18Zm1.32-6.21h4.07c3.04 0 5.16-1.2 5.16-4.06 0-1.92-1.01-3.16-3.74-3.16h-3.97l-1.52 7.23Z" fill="#0C64D1" data-color="3"></path>
        <path d="m438.19 341.3-3.11 6.62h-9.24L442.28 316h11.63l3.32 31.92h-8.91l-.57-6.62h-9.55Zm9.45-6.61c-.42-4.85-.71-9.42-.8-12.37h-.13c-1.42 3.5-3.43 7.78-5.64 12.37z" fill="#0C64D1" data-color="3"></path>
        <path d="m460.46 347.92 6.77-31.92h10.89c1.61 7.87 3.86 17.38 4.33 21.73h.14c.48-3.62 1.64-9.58 2.72-14.67l1.49-7.06h8.24l-6.77 31.92h-10.38c-1.37-6.5-4.09-18.72-4.51-22.84h-.12c-.52 3.91-1.77 9.78-2.96 15.4l-1.57 7.44z" fill="#0C64D1" data-color="3"></path>
        <path d="M503.53 337.94c.22 2.58 1.82 4.36 5.14 4.36 2.64 0 4.24-.92 4.24-3.22 0-2.05-1.46-3.08-5.23-4.31-6.82-2.23-9.53-4.87-9.53-9.12 0-5.81 4.26-10.24 12.85-10.24 7.79 0 12.61 3.61 12.71 9.81h-8.7c-.06-1.46-.69-3.54-4.16-3.54-2.1 0-3.64.89-3.64 2.83 0 1.51 1.17 2.46 4.91 3.67 7.13 2.31 10.1 5.15 10.1 9.83 0 6.08-4.44 10.51-14.07 10.51-8.8 0-13.16-4.13-13.34-10.58h8.71Z" fill="#0C64D1" data-color="3"></path>
        <path d="M531.64 316h12.64c7.31 0 11.11 3.98 11.11 9.25 0 7.24-5.42 11.29-13.57 11.29h-5.89l-2.38 11.39h-8.69l6.77-31.92Zm5.65 14.28h3.56c3.59 0 5.46-1.47 5.46-4.59 0-2.24-1.18-3.45-4.03-3.45h-3.24l-1.74 8.04Z" fill="#0C64D1" data-color="3"></path>
        <path d="M589.12 328.92c0 9.56-5.26 19.6-18.31 19.6-9.34 0-13.34-5.96-13.34-13.05 0-9.58 5.86-20.06 18.03-20.06 9.42 0 13.61 6.11 13.61 13.52Zm-22.46 6.7c0 3.82 1.53 6.42 5.13 6.42 6.13 0 8.31-8.43 8.31-13.68 0-3.56-1.21-6.5-5.03-6.5-5.75 0-8.42 8.26-8.42 13.75Z" fill="#0C64D1" data-color="3"></path>
        <path d="m602.1 335.64-2.57 12.28h-8.79l6.77-31.92h13.72c6.82 0 10.38 3.38 10.38 8.39 0 4.34-2.6 7.28-6.57 8.41 1.71.75 3.78 2.69 2.7 7.88-.71 3.33-1.22 5.86-1.07 7.24h-8.44c-.19-1.37.06-3.63.88-7.53.65-3.02.35-4.74-2.82-4.74h-4.18Zm1.32-6.21h4.07c3.04 0 5.16-1.2 5.16-4.06 0-1.92-1.01-3.16-3.74-3.16h-3.97l-1.52 7.23Z" fill="#0C64D1" data-color="3"></path>
        <path d="M632.9 322.61h-8.75l1.43-6.61h26.33l-1.43 6.61h-8.69l-5.34 25.32h-8.88l5.34-25.32Z" fill="#0C64D1" data-color="3"></path>
        <path d="M674.46 334.85h-13.82l-1.38 6.46h15.8l-2.36 6.61h-23.42l6.77-31.92h23l-1.4 6.61h-14.39l-1.2 5.64h13.82l-1.43 6.61Z" fill="#0C64D1" data-color="3"></path>
        <path d="M141.24 365.18c.45-2.13.98-4.52 1.31-5.86h-.06c-.99 2.25-3.33 6.84-5.27 10.61h-1.89c-.23-2.99-.71-8.64-.73-10.64h-.07c-.19 1.37-.72 4.05-1.16 6.12l-.95 4.52h-2l2.57-12.11h3.24c.29 3.17.64 7.6.67 9.32h.02c.6-1.48 2.99-5.89 4.73-9.32h3.25l-2.57 12.11h-2.1z" fill="#FFFFFF" data-color="1"></path>
        <path d="M154.12 364.49h-5.52l-.77 3.67h6.29l-.63 1.77h-8.15l2.57-12.11h7.9l-.38 1.77h-5.78l-.66 3.11h5.52l-.38 1.77Z" fill="#FFFFFF" data-color="1"></path>
        <path d="M166.1 366.22c-.85 2.44-2.56 3.88-5.46 3.88s-4.51-1.94-4.51-4.88c0-3.3 1.87-7.57 6.4-7.57 2.67 0 4.3 1.46 4.39 3.95h-2.24c-.08-1.18-.65-2.22-2.39-2.22-2.57 0-3.87 3.12-3.87 5.8 0 1.76.64 3.17 2.46 3.17 1.48 0 2.35-.81 2.95-2.14h2.26Z" fill="#FFFFFF" data-color="1"></path>
        <path d="m170.35 366.78-1.67 3.15h-2.26l6.58-12.11h2.69l1.66 12.11h-2.16l-.44-3.15zm4.3-1.77c-.33-2.62-.54-4.42-.61-5.48h-.02c-.55 1.17-1.57 3.16-2.81 5.48h3.43Zm4.66-10.6-3.88 2.42h-2.16l3.11-2.42z" fill="#FFFFFF" data-color="1"></path>
        <path d="m178.89 369.94 2.57-12.11h2.77c.92 2.81 2.73 8.17 2.99 9.63h.03c.19-1.42.66-3.56 1.08-5.54l.87-4.09h2.02l-2.57 12.11h-2.63c-.82-2.57-2.76-8.66-3.03-10.01h-.03c-.23 1.54-.69 3.64-1.15 5.82l-.88 4.19h-2.03Z" fill="#FFFFFF" data-color="1"></path>
        <path d="m196.36 357.83-2.57 12.11h-2.14l2.57-12.11z" fill="#FFFFFF" data-color="1"></path>
        <path d="M207.18 366.22c-.85 2.44-2.56 3.88-5.46 3.88s-4.51-1.94-4.51-4.88c0-3.3 1.87-7.57 6.4-7.57 2.67 0 4.3 1.46 4.39 3.95h-2.24c-.08-1.18-.65-2.22-2.39-2.22-2.57 0-3.87 3.12-3.87 5.8 0 1.76.64 3.17 2.46 3.17 1.48 0 2.35-.81 2.95-2.14h2.26Z" fill="#FFFFFF" data-color="1"></path>
        <path d="m211.44 366.78-1.67 3.15h-2.26l6.58-12.11h2.69l1.66 12.11h-2.16l-.44-3.15zm4.3-1.77c-.33-2.62-.54-4.42-.61-5.48h-.02c-.55 1.17-1.57 3.16-2.81 5.48h3.43Z" fill="#FFFFFF" data-color="1"></path>
        <path d="M355.06 364.56h-5.52l-.77 3.67h6.29l-.63 1.77h-8.15l2.57-12.11h7.9l-.38 1.77h-5.78l-.66 3.11h5.52l-.38 1.77Z" fill="#FFFFFF" data-color="1"></path>
        <path d="M359.07 357.9h2.15l-2.19 10.33h5.9l-.61 1.77h-7.81l2.57-12.11Z" fill="#FFFFFF" data-color="1"></path>
        <path d="M374.82 364.56h-5.52l-.77 3.67h6.29l-.63 1.77h-8.15l2.57-12.11h7.9l-.38 1.77h-5.78l-.66 3.11h5.52l-.38 1.77Z" fill="#FFFFFF" data-color="1"></path>
        <path d="M386.8 366.29c-.85 2.44-2.56 3.88-5.46 3.88s-4.51-1.94-4.51-4.88c0-3.3 1.87-7.57 6.4-7.57 2.67 0 4.3 1.46 4.39 3.95h-2.24c-.08-1.18-.65-2.22-2.39-2.22-2.57 0-3.87 3.12-3.87 5.8 0 1.76.64 3.17 2.46 3.17 1.48 0 2.35-.81 2.95-2.14h2.26Z" fill="#FFFFFF" data-color="1"></path>
        <path d="M392.35 359.67h-3.61l.38-1.77h9.36l-.38 1.77h-3.61L392.31 370h-2.14z" fill="#FFFFFF" data-color="1"></path>
        <path d="m400.94 364.91-1.07 5.1h-2.13l2.57-12.11h4.43c2.29 0 3.6 1.17 3.6 3.09 0 1.71-1.02 2.8-2.54 3.18.56.24 1.51.88 1.08 2.94-.3 1.4-.51 2.36-.43 2.9h-2.04c-.06-.53.04-1.41.37-2.89.31-1.46-.02-2.21-1.52-2.21h-2.3Zm.36-1.74h2.16c1.6 0 2.67-.55 2.67-1.96 0-1.03-.6-1.57-1.89-1.57h-2.19z" fill="#FFFFFF" data-color="1"></path>
        <path d="M420.74 362.75c0 3.66-2.04 7.43-6.59 7.43-3.14 0-4.71-2.09-4.71-4.88 0-3.59 2.17-7.58 6.51-7.58 3.23 0 4.79 2.14 4.79 5.03m-9.07 2.48c0 1.91.89 3.22 2.76 3.22 2.87 0 4.1-3.05 4.1-5.72 0-1.92-.82-3.26-2.71-3.26-2.78 0-4.15 3.11-4.15 5.77Zm9.02-10.89-3.88 2.42h-2.16l3.11-2.42z" fill="#FFFFFF" data-color="1"></path>
        <path d="m421.83 370.01 2.57-12.11h2.77c.92 2.81 2.72 8.17 2.99 9.63h.03c.19-1.42.66-3.56 1.08-5.54l.87-4.09h2.02l-2.57 12.11h-2.63c-.82-2.57-2.76-8.66-3.03-10.01h-.03c-.23 1.54-.69 3.64-1.15 5.82l-.88 4.19h-2.03Z" fill="#FFFFFF" data-color="1"></path>
        <path d="m439.3 357.9-2.57 12.11h-2.14l2.57-12.11z" fill="#FFFFFF" data-color="1"></path>
        <path d="M450.12 366.29c-.85 2.44-2.56 3.88-5.46 3.88s-4.51-1.94-4.51-4.88c0-3.3 1.87-7.57 6.4-7.57 2.67 0 4.3 1.46 4.39 3.95h-2.24c-.08-1.18-.65-2.22-2.39-2.22-2.57 0-3.87 3.12-3.87 5.8 0 1.76.64 3.17 2.46 3.17 1.48 0 2.35-.81 2.95-2.14h2.26Z" fill="#FFFFFF" data-color="1"></path>
        <path d="m454.38 366.85-1.67 3.15h-2.26l6.58-12.11h2.69l1.66 12.11h-2.16l-.44-3.15zm4.3-1.77c-.33-2.62-.54-4.42-.61-5.48h-.02c-.55 1.17-1.57 3.16-2.81 5.48h3.43Z" fill="#FFFFFF" data-color="1"></path>
        <path d="M607.41 357.87h3.77c3.15 0 5.15 1.91 5.15 5.13 0 3.94-2.53 6.97-6.91 6.97h-4.57l2.57-12.11Zm-.05 10.37h2.09c2.85 0 4.59-2.01 4.6-5.2 0-2.24-1.13-3.43-3.15-3.43h-1.72z" fill="#FFFFFF" data-color="1"></path>
        <path d="m622.1 357.87-2.57 12.11h-2.14l2.57-12.11z" fill="#FFFFFF" data-color="1"></path>
        <path d="M631.31 364.53h-5.52l-.77 3.67h6.29l-.63 1.77h-8.15l2.57-12.11h7.9l-.38 1.77h-5.78l-.66 3.11h5.52l-.38 1.77Zm2.53-10.16-3.88 2.42h-2.16l3.11-2.42z" fill="#FFFFFF" data-color="1"></path>
        <path d="M635 366.33c.11 1.36.97 2.15 2.57 2.15 1.41 0 2.26-.57 2.26-1.8 0-.99-.57-1.55-2.3-2.18-2.39-.85-3.26-1.79-3.26-3.28 0-1.88 1.33-3.53 4.28-3.53 2.77 0 4.17 1.48 4.2 3.5h-2.17c-.08-.91-.5-1.8-2.14-1.8-1.2 0-1.96.61-1.96 1.59 0 .73.39 1.19 2.03 1.78 2.47.89 3.57 1.89 3.57 3.63 0 1.92-1.18 3.75-4.74 3.75-2.94 0-4.46-1.53-4.53-3.83h2.18Z" fill="#FFFFFF" data-color="1"></path>
        <path d="M652.28 364.53h-5.52l-.77 3.67h6.29l-.63 1.77h-8.15l2.57-12.11h7.9l-.38 1.77h-5.78l-.66 3.11h5.52l-.38 1.77Z" fill="#FFFFFF" data-color="1"></path>
        <path d="M656.29 357.87h2.14l-2.19 10.33h5.9l-.61 1.77h-7.81l2.57-12.11Z" fill="#FFFFFF" data-color="1"></path>
    </g>
</svg>