<svg viewBox="0 0 50 50" width="200" height="200" xmlns="http://www.w3.org/2000/svg" fill="#0064d5"><path d="m4.96875 4c-.242187.007813-.503906.097656-.6875.28125l-1 1c-.363281.363281-.390625.945313-.0625 1.34375l13.78125 16.71875v2.65625h10v-3c0-.292969-.121094-.558594-.34375-.75l-21-18c-.199219-.167969-.445312-.257812-.6875-.25zm-.96875 6.71875v8.28125c0 .550781.449219 1 1 1s1 .449219 1 1-.449219 1-1 1-1-.449219-1-1h-2c0 1.652344 1.347656 3 3 3s3-1.347656 3-3c0-1.304687-.835937-2.429687-2-2.84375v-5zm28 2.28125c-1.652344 0-3 1.347656-3 3v22h4.09375c.480469 2.832031 2.9375 5 5.90625 5s5.429688-2.167969 5.90625-5h2.09375c1.652344 0 3-1.347656 3-3v-9.625c0-2.011719-1.449219-4.066406-1.625-4.3125l-4.15625-5.5625c-.953125-1.148437-2.445312-2.5-4.21875-2.5zm6 6h6.34375l2.4375 3.25c.304688.425781 1.035156 1.652344 1.1875 2.75h-9.96875c-.449219 0-1-.550781-1-1v-4c0-.554687.546875-1 1-1zm-38 9v7c0 1.652344 1.347656 3 3 3h4.09375c.480469 2.832031 2.9375 5 5.90625 5s5.425781-2.167969 5.90625-5h8.09375v-10zm13 5c2.207031 0 4 1.792969 4 4s-1.792969 4-4 4-4-1.792969-4-4 1.792969-4 4-4zm26 0c2.207031 0 4 1.792969 4 4s-1.792969 4-4 4-4-1.792969-4-4 1.792969-4 4-4z"/></svg>