<svg width="48" height="48" viewBox="0 0 48 48" fill="none" xmlns="http://www.w3.org/2000/svg">
<g clip-path="url(#clip0_3343_163)">
<path d="M40.8983 40.8989H33.7862V29.7609C33.7862 27.1049 33.7388 23.6859 30.0872 23.6859C26.3829 23.6859 25.8161 26.5797 25.8161 29.5676V40.8982H18.7042V17.9939H25.5317V21.1241H25.6273C26.3106 19.9558 27.298 18.9947 28.4843 18.3432C29.6705 17.6916 31.0113 17.374 32.3638 17.4241C39.5723 17.4241 40.9013 22.1656 40.9013 28.334L40.8983 40.8989ZM10.6793 14.8632C8.39981 14.8636 6.55162 13.016 6.55125 10.7366C6.55087 8.45712 8.39831 6.60893 10.6777 6.60856C12.9572 6.60799 14.8054 8.45562 14.8057 10.7351C14.8059 11.8297 14.3713 12.8796 13.5974 13.6537C12.8236 14.4279 11.7739 14.863 10.6793 14.8632ZM14.2354 40.8991H7.11581V17.9939H14.2352L14.2354 40.8991ZM44.4439 0.00349348H3.54206C1.60894 -0.0182565 0.023625 1.53031 0 3.46343V44.5359C0.022875 46.4699 1.608 48.02 3.54187 47.9997H44.4439C46.3819 48.0237 47.9732 46.4737 48 44.5359V3.46024C47.9724 1.52337 46.3809 -0.0250065 44.4439 0.00030598" fill="#FAFAFA"/>
</g>
<defs>
<clipPath id="clip0_3343_163">
<rect width="48" height="48" fill="white"/>
</clipPath>
</defs>
</svg>
